<mxfile host="app.diagrams.net" modified="2024-02-19T10:49:10.643Z" agent="Mozilla/5.0 (Windows NT 10.0; Win64; x64) AppleWebKit/537.36 (KHTML, like Gecko) Chrome/120.0.0.0 YaBrowser/24.1.0.0 Safari/537.36" etag="btreI0ivqiN6ERVYnfLy" version="23.1.5" type="device">
  <diagram name="Страница 1" id="L_cYRtw9oG-TnxR-E7WW">
    <mxGraphModel dx="1113" dy="572" grid="1" gridSize="10" guides="1" tooltips="1" connect="1" arrows="1" fold="1" page="1" pageScale="1" pageWidth="827" pageHeight="1169" math="0" shadow="0">
      <root>
        <mxCell id="0" />
        <mxCell id="1" parent="0" />
        <mxCell id="jyGLezSWwBV2YXDfBnjo-1" value="" style="rounded=0;whiteSpace=wrap;html=1;align=left;" parent="1" vertex="1">
          <mxGeometry x="90" y="140" width="160" height="20" as="geometry" />
        </mxCell>
        <mxCell id="jyGLezSWwBV2YXDfBnjo-17" style="edgeStyle=orthogonalEdgeStyle;rounded=0;orthogonalLoop=1;jettySize=auto;html=1;entryX=0.298;entryY=1.233;entryDx=0;entryDy=0;entryPerimeter=0;" parent="1" source="jyGLezSWwBV2YXDfBnjo-2" target="jyGLezSWwBV2YXDfBnjo-6" edge="1">
          <mxGeometry relative="1" as="geometry" />
        </mxCell>
        <mxCell id="jyGLezSWwBV2YXDfBnjo-2" value="&lt;b&gt;&lt;i&gt;class Pets&lt;/i&gt;&lt;/b&gt;" style="rounded=0;whiteSpace=wrap;html=1;" parent="1" vertex="1">
          <mxGeometry x="90" y="110" width="160" height="30" as="geometry" />
        </mxCell>
        <mxCell id="jyGLezSWwBV2YXDfBnjo-5" value="&lt;b&gt;&lt;i&gt;class Animal&lt;/i&gt;&lt;/b&gt;" style="rounded=0;whiteSpace=wrap;html=1;" parent="1" vertex="1">
          <mxGeometry x="260" y="10" width="170" height="30" as="geometry" />
        </mxCell>
        <mxCell id="jyGLezSWwBV2YXDfBnjo-6" value="&lt;font style=&quot;font-size: 10px;&quot;&gt;&lt;br&gt;&lt;/font&gt;" style="rounded=0;whiteSpace=wrap;html=1;align=left;" parent="1" vertex="1">
          <mxGeometry x="260" y="40" width="170" height="20" as="geometry" />
        </mxCell>
        <mxCell id="jyGLezSWwBV2YXDfBnjo-18" style="edgeStyle=orthogonalEdgeStyle;rounded=0;orthogonalLoop=1;jettySize=auto;html=1;entryX=0.716;entryY=1.198;entryDx=0;entryDy=0;entryPerimeter=0;" parent="1" source="jyGLezSWwBV2YXDfBnjo-7" target="jyGLezSWwBV2YXDfBnjo-6" edge="1">
          <mxGeometry relative="1" as="geometry" />
        </mxCell>
        <mxCell id="jyGLezSWwBV2YXDfBnjo-7" value="&lt;b&gt;&lt;i&gt;class PackAnimal&lt;/i&gt;&lt;/b&gt;" style="rounded=0;whiteSpace=wrap;html=1;" parent="1" vertex="1">
          <mxGeometry x="465" y="110" width="150" height="30" as="geometry" />
        </mxCell>
        <mxCell id="jyGLezSWwBV2YXDfBnjo-8" value="" style="rounded=0;whiteSpace=wrap;html=1;align=left;" parent="1" vertex="1">
          <mxGeometry x="465" y="140" width="150" height="20" as="geometry" />
        </mxCell>
        <mxCell id="jyGLezSWwBV2YXDfBnjo-19" style="edgeStyle=orthogonalEdgeStyle;rounded=0;orthogonalLoop=1;jettySize=auto;html=1;entryX=0.206;entryY=1.129;entryDx=0;entryDy=0;entryPerimeter=0;" parent="1" source="jyGLezSWwBV2YXDfBnjo-9" target="jyGLezSWwBV2YXDfBnjo-1" edge="1">
          <mxGeometry relative="1" as="geometry" />
        </mxCell>
        <mxCell id="jyGLezSWwBV2YXDfBnjo-9" value="&lt;b&gt;&lt;i&gt;class Dogs&lt;/i&gt;&lt;/b&gt;" style="rounded=0;whiteSpace=wrap;html=1;" parent="1" vertex="1">
          <mxGeometry x="10" y="220" width="100" height="30" as="geometry" />
        </mxCell>
        <mxCell id="jyGLezSWwBV2YXDfBnjo-21" style="edgeStyle=orthogonalEdgeStyle;rounded=0;orthogonalLoop=1;jettySize=auto;html=1;entryX=0.5;entryY=1;entryDx=0;entryDy=0;" parent="1" source="jyGLezSWwBV2YXDfBnjo-10" target="jyGLezSWwBV2YXDfBnjo-1" edge="1">
          <mxGeometry relative="1" as="geometry" />
        </mxCell>
        <mxCell id="jyGLezSWwBV2YXDfBnjo-10" value="&lt;b&gt;&lt;i&gt;class Cats&lt;/i&gt;&lt;/b&gt;" style="rounded=0;whiteSpace=wrap;html=1;" parent="1" vertex="1">
          <mxGeometry x="120" y="220" width="100" height="30" as="geometry" />
        </mxCell>
        <mxCell id="jyGLezSWwBV2YXDfBnjo-20" style="edgeStyle=orthogonalEdgeStyle;rounded=0;orthogonalLoop=1;jettySize=auto;html=1;entryX=0.827;entryY=1.026;entryDx=0;entryDy=0;entryPerimeter=0;" parent="1" source="jyGLezSWwBV2YXDfBnjo-11" target="jyGLezSWwBV2YXDfBnjo-1" edge="1">
          <mxGeometry relative="1" as="geometry" />
        </mxCell>
        <mxCell id="jyGLezSWwBV2YXDfBnjo-11" value="&lt;b&gt;&lt;i&gt;class Hamsters&lt;/i&gt;&lt;/b&gt;" style="rounded=0;whiteSpace=wrap;html=1;" parent="1" vertex="1">
          <mxGeometry x="230" y="220" width="100" height="30" as="geometry" />
        </mxCell>
        <mxCell id="jyGLezSWwBV2YXDfBnjo-22" style="edgeStyle=orthogonalEdgeStyle;rounded=0;orthogonalLoop=1;jettySize=auto;html=1;entryX=0.198;entryY=1.129;entryDx=0;entryDy=0;entryPerimeter=0;" parent="1" source="jyGLezSWwBV2YXDfBnjo-12" target="jyGLezSWwBV2YXDfBnjo-8" edge="1">
          <mxGeometry relative="1" as="geometry" />
        </mxCell>
        <mxCell id="jyGLezSWwBV2YXDfBnjo-12" value="&lt;b&gt;&lt;i&gt;class Horses&lt;/i&gt;&lt;/b&gt;" style="rounded=0;whiteSpace=wrap;html=1;" parent="1" vertex="1">
          <mxGeometry x="380" y="220" width="100" height="30" as="geometry" />
        </mxCell>
        <mxCell id="jyGLezSWwBV2YXDfBnjo-24" style="edgeStyle=orthogonalEdgeStyle;rounded=0;orthogonalLoop=1;jettySize=auto;html=1;entryX=0.5;entryY=1;entryDx=0;entryDy=0;" parent="1" source="jyGLezSWwBV2YXDfBnjo-13" target="jyGLezSWwBV2YXDfBnjo-8" edge="1">
          <mxGeometry relative="1" as="geometry" />
        </mxCell>
        <mxCell id="jyGLezSWwBV2YXDfBnjo-13" value="&lt;b&gt;&lt;i&gt;class Camels&lt;/i&gt;&lt;/b&gt;" style="rounded=0;whiteSpace=wrap;html=1;" parent="1" vertex="1">
          <mxGeometry x="490" y="220" width="100" height="30" as="geometry" />
        </mxCell>
        <mxCell id="jyGLezSWwBV2YXDfBnjo-23" style="edgeStyle=orthogonalEdgeStyle;rounded=0;orthogonalLoop=1;jettySize=auto;html=1;entryX=0.782;entryY=1.026;entryDx=0;entryDy=0;entryPerimeter=0;" parent="1" source="jyGLezSWwBV2YXDfBnjo-14" target="jyGLezSWwBV2YXDfBnjo-8" edge="1">
          <mxGeometry relative="1" as="geometry" />
        </mxCell>
        <mxCell id="jyGLezSWwBV2YXDfBnjo-14" value="&lt;b&gt;&lt;i&gt;class Donkeys&lt;/i&gt;&lt;/b&gt;" style="rounded=0;whiteSpace=wrap;html=1;" parent="1" vertex="1">
          <mxGeometry x="600" y="220" width="100" height="30" as="geometry" />
        </mxCell>
        <mxCell id="jyGLezSWwBV2YXDfBnjo-33" value="" style="rounded=0;whiteSpace=wrap;html=1;" parent="1" vertex="1">
          <mxGeometry x="10" y="250" width="100" height="20" as="geometry" />
        </mxCell>
        <mxCell id="jyGLezSWwBV2YXDfBnjo-34" value="" style="rounded=0;whiteSpace=wrap;html=1;" parent="1" vertex="1">
          <mxGeometry x="120" y="250" width="100" height="20" as="geometry" />
        </mxCell>
        <mxCell id="jyGLezSWwBV2YXDfBnjo-35" value="" style="rounded=0;whiteSpace=wrap;html=1;" parent="1" vertex="1">
          <mxGeometry x="230" y="250" width="100" height="20" as="geometry" />
        </mxCell>
        <mxCell id="jyGLezSWwBV2YXDfBnjo-36" value="" style="rounded=0;whiteSpace=wrap;html=1;" parent="1" vertex="1">
          <mxGeometry x="380" y="250" width="100" height="20" as="geometry" />
        </mxCell>
        <mxCell id="jyGLezSWwBV2YXDfBnjo-37" value="" style="rounded=0;whiteSpace=wrap;html=1;" parent="1" vertex="1">
          <mxGeometry x="490" y="250" width="100" height="20" as="geometry" />
        </mxCell>
        <mxCell id="jyGLezSWwBV2YXDfBnjo-38" value="" style="rounded=0;whiteSpace=wrap;html=1;" parent="1" vertex="1">
          <mxGeometry x="600" y="250" width="100" height="20" as="geometry" />
        </mxCell>
      </root>
    </mxGraphModel>
  </diagram>
</mxfile>
